<?xml version="1.0" encoding="UTF-8"?>
<svg width="52px" height="30px" viewBox="0 0 52 30" version="1.1" xmlns="http://www.w3.org/2000/svg" xmlns:xlink="http://www.w3.org/1999/xlink">
    <title>molecules/logo/cassis-desktop</title>
    <g id="Symbols" stroke="none" stroke-width="1" fill="none" fill-rule="evenodd">
        <g id="molecules/logo/cassis-desktop" fill="#e9a8ae">
            <path d="M13.525166,7.16187033 C15.1646841,6.96212352 17.0036677,7.22470149 18.0628884,8.61974072 C19.1204212,10.0124355 18.6118639,11.7810857 17.7671131,13.136832 C16.8931974,14.5390921 15.8005917,15.6504534 14.4483152,16.6124265 C14.4086471,16.6380278 14.243223,16.7434341 14.0664518,16.8335547 C13.5232905,17.1106682 13.0661235,16.5872003 12.9489012,16.3175889 C12.9052007,16.2170591 12.8844758,16.1205617 12.9052007,16.0338172 C12.9146723,15.994618 12.9323963,15.957482 12.9603421,15.9227842 C12.9964465,15.8818033 13.0379901,15.8412913 13.0875048,15.8014357 C14.2994897,14.8258648 15.3248567,13.4813718 16.0055901,12.0853948 C16.478418,11.1155443 16.7110808,9.51325603 15.4926252,9.09538195 C14.1391296,8.63118161 12.112309,9.41206973 11.7278199,9.5633334 C11.6013135,9.61312944 11.4756512,9.66545747 11.3514894,9.72059885 C11.3095707,9.73916686 11.132143,9.82731803 11.1060727,9.83829004 C10.3900789,10.2179965 9.70296861,10.6465613 9.04877436,11.1257661 C6.21949676,13.1978814 3.8743004,16.1609799 2.66344086,19.4635543 C1.69584105,22.1030256 1.41891507,25.924379 3.95710624,27.8199106 C5.45942732,28.941775 7.60112576,28.9792861 9.38252971,28.7376206 C11.3632116,28.4689471 13.0924751,27.6461402 14.8417132,26.7312436 C15.030488,26.6325893 15.4743386,26.7884481 15.2530228,27.0407105 C13.7135657,28.796138 11.1080421,29.6332928 8.85840533,29.9029979 C6.49229651,30.1866759 3.77911589,29.9171583 2.00136927,28.1623873 C-0.774267404,25.4226675 -0.268617261,21.0454928 1.14892865,17.7756469 C2.76378315,14.0501344 5.72078618,10.6798524 9.23876828,8.64215362 C10.5536274,7.88067752 12.0117792,7.3461438 13.525166,7.16187033 Z M35.6725298,13.4002633 C35.8913135,13.1562534 36.9319662,13.5600608 37.1086437,13.8317352 C37.5554014,14.5185641 37.6573379,15.0700716 37.9184154,15.8866891 C38.0949991,15.7673099 38.2746774,15.6526196 38.4563251,15.5411178 C39.3645636,14.9604453 40.1072841,14.6009011 41.0055821,14.2563613 C41.2337436,14.1688665 41.5427416,14.0673051 41.789096,14.0447985 C42.0447344,14.0216353 43.1169903,14.543509 43.1562832,15.1891695 C43.2099241,16.0706813 43.0656,16.6785493 43.1017983,17.5612801 C43.1064871,17.6748451 43.1387467,17.8684026 43.1934192,17.8818128 C43.3081095,17.9099461 43.4699701,17.8781555 43.570875,17.8096976 C45.0259321,16.5958372 46.099876,15.7008214 47.5231423,15.0584432 C49.0804172,14.3554845 49.1921067,14.549417 50.0899358,15.0926721 C51.2991073,15.8242331 51.6233911,17.157754 51.0525653,18.4674554 C50.5764552,19.5598736 49.8462071,20.2387314 48.680361,20.4508569 C48.2436375,20.5302867 47.8729337,20.4722382 47.6191709,20.3143163 C47.5499628,20.2711785 47.5448988,20.1711176 47.6123251,20.1249789 C48.0392956,19.8324858 48.5198133,19.5756282 48.8519744,19.190764 C49.3733792,18.5864595 49.6472105,17.5345534 49.4199868,17.0030206 C49.2405898,16.5834585 48.8056482,16.3745215 48.1617695,16.5819581 C47.1378092,16.9119623 46.1847449,17.688818 45.3982301,18.3898074 C44.7192785,18.9949558 44.114599,19.5944776 43.5041052,20.2722101 C43.1982019,20.6115921 42.8987692,20.6516352 42.5205632,20.4323826 C41.4068575,19.7869097 41.3380245,19.3401521 41.3964481,17.9358288 C41.46153,17.4302725 41.423081,16.9148694 41.4224246,16.4039677 C41.4217682,15.9632118 41.2010151,15.7859717 40.7816406,15.9528963 C39.9307942,16.2916219 39.2286795,16.6965546 38.5908963,17.2471243 L38.5908963,17.2471243 L38.5892083,17.2526572 L38.5614501,17.2729132 C38.5149363,17.3134253 38.4680474,17.3527182 38.4223775,17.3948244 C38.3738944,17.4266151 38.3163148,17.4842885 38.2668939,17.5387734 C38.3068432,17.9583355 38.3049677,18.381086 38.2320085,18.789301 C37.9665234,20.2753047 36.7943004,22.0101949 35.477847,21.4978865 C34.2803977,21.0319044 34.5252516,19.4856953 35.0942018,18.5692044 C35.5226728,17.8789057 35.8070072,17.4399316 36.4268788,16.8926441 C36.3448232,16.4960576 36.2392293,15.91079 35.9646478,15.4271777 C35.9646478,15.4271777 34.655509,16.5112496 33.3201125,17.9862813 C33.2310236,19.080575 32.9758541,20.1325749 32.2122211,21.0104293 C31.7792487,21.5084834 31.051814,21.9690264 30.4030589,21.5800359 C29.6660588,21.1381547 30.0194137,20.0586779 30.3774575,19.4704095 C30.8635081,18.6718911 31.2796004,18.2062841 31.8513639,17.4665645 C31.8495821,17.2120514 31.7755914,16.7712955 31.7405185,16.5180016 C30.7235417,17.1518812 28.7834854,19.1244604 27.3711148,20.5422278 L26.9831924,20.9305717 C26.4266066,21.4855349 25.9923205,21.9054714 25.7945342,22.0413291 C25.4796282,22.2575808 24.3633905,22.2438893 24.1718961,22.0758394 C23.9596769,21.8896904 23.5348632,20.7364104 23.2153621,20.5669538 C23.0543455,20.481616 21.8841856,21.4165811 20.5614491,22.5382579 C19.9774007,23.0334987 18.7735745,23.9370483 18.1369167,24.3491081 C17.3931646,24.8305636 16.4413194,24.8257809 15.7903136,24.2234458 C15.5255788,23.9784981 15.0898869,23.5773165 14.9570975,23.2409353 C14.6696684,22.5120001 15.0929816,21.3653784 15.409388,20.7017126 C15.7927519,19.8976614 16.4040896,19.0289034 17.0881052,18.4592968 C18.0919971,17.6231735 19.0719756,17.1515647 20.3131253,16.9430028 C21.6021956,16.7264697 22.6281252,16.8218418 23.8966582,17.3677226 C23.488537,17.8177625 23.167723,18.0282 22.8172752,18.0683369 C22.7268733,18.0786525 22.5510399,18.0586778 22.45895,18.0503316 C20.339008,17.8566803 18.8383749,18.9395331 17.6247021,20.4926818 C17.1791635,21.0628511 16.8672584,21.6236426 16.6122764,22.4523574 C16.5647311,22.6069033 16.7852028,22.7648252 16.8835758,22.8448177 C17.1995133,23.1011126 17.5289549,22.8584155 17.6801248,22.751415 C17.8901121,22.6025895 18.7684804,21.863335 19.6911419,21.1113935 L20.0610895,20.8113097 C20.5535578,20.4139477 21.0349559,20.0348884 21.4106075,19.7617773 C21.9631465,19.360033 22.7490049,18.7317214 23.1998888,18.8134957 C23.8892497,18.9384078 24.2543269,19.1186488 24.4375688,19.337245 C24.5531969,19.4751922 25.0113954,20.3899013 25.0808848,20.4960578 C25.0808848,20.4960578 25.0714132,20.9720741 25.8504258,20.1502989 C28.2205671,17.649994 30.0654586,15.7623397 31.6891282,14.4665174 C31.9663355,14.2452955 32.8625704,14.7146536 33.0155221,15.1323401 C33.1232728,15.4264275 33.1480302,15.7374886 33.1865729,15.9005682 C33.1981169,15.8883162 33.2136212,15.8722654 33.2327159,15.8527651 L33.4915212,15.5935516 C34.0884494,15.0006685 35.3204502,13.7928549 35.6725298,13.4002633 Z M49.6006311,0.2147794 C49.9380438,0.490017376 50.0001247,1.22326635 49.7189787,1.65511333 C49.3590594,2.20802751 48.9533764,2.73609055 48.6439095,3.31573142 C48.0987789,4.33622193 47.9345739,5.43979962 48.0671758,6.59326712 C48.0900576,6.79310771 48.0411055,7.14880708 47.9353241,7.18772488 C47.6351412,7.29819518 47.4994447,7.05990568 47.4018219,6.77510236 L47.378006,6.69794345 L47.378006,6.69794345 L47.3342825,6.53799558 C47.2798376,6.35098362 47.1982678,6.1718201 46.9309634,6.09783876 C46.8323091,6.07045563 46.8335282,5.68137135 46.8072704,5.54961348 C46.9286189,4.0493555 46.9575963,2.6313407 47.5649954,1.32267087 C47.7194475,0.989853293 47.9077534,0.658254831 48.145574,0.382079076 C48.5319388,-0.0667416927 49.1935415,-0.117194174 49.6006311,0.2147794 Z" id="Combined-Shape"></path>
        </g>
    </g>
</svg>