<?xml version="1.0" standalone="no"?>
<!DOCTYPE svg PUBLIC "-//W3C//DTD SVG 20010904//EN"
 "http://www.w3.org/TR/2001/REC-SVG-20010904/DTD/svg10.dtd">
<svg version="1.0" xmlns="http://www.w3.org/2000/svg"
 width="454.000000pt" height="111.000000pt" viewBox="0 0 454.000000 111.000000"
 preserveAspectRatio="xMidYMid meet">

<g transform="translate(0.000000,111.000000) scale(0.100000,-0.100000)"
fill="#985A69" stroke="none">
<path d="M500 1094 c-56 -15 -158 -70 -285 -153 -79 -51 -205 -172 -205 -196
0 -27 358 -732 375 -739 22 -8 52 9 60 33 4 13 -17 65 -60 151 -36 72 -62 136
-59 143 4 7 27 35 50 62 80 95 184 290 237 446 50 148 45 237 -15 258 -37 13
-29 13 -98 -5z m30 -203 c-32 -96 -76 -195 -128 -286 -56 -99 -123 -189 -132
-178 -4 4 -42 74 -83 156 l-76 147 31 35 c54 62 266 194 368 230 34 12 35 11
38 -13 2 -14 -6 -55 -18 -91z"/>
<path d="M3215 1056 c-18 -13 -21 -46 -42 -377 -12 -200 -22 -401 -22 -446 -1
-73 1 -84 20 -93 16 -9 26 -8 45 5 19 12 24 24 24 58 0 71 13 207 19 207 3 0
17 -19 31 -40 29 -47 120 -140 170 -173 68 -45 142 -70 222 -75 76 -4 78 -4
89 22 19 40 -7 62 -82 70 -117 12 -219 77 -314 200 -32 42 -56 78 -54 81 3 2
94 43 204 90 110 47 206 92 214 100 12 12 12 17 -3 39 -9 15 -26 26 -39 26
-12 0 -113 -39 -224 -87 -112 -47 -205 -84 -207 -82 -4 4 2 137 18 381 4 61 2
80 -10 93 -19 19 -35 19 -59 1z"/>
<path d="M927 960 c-71 -22 -89 -36 -85 -68 5 -43 29 -49 105 -24 137 45 243
20 291 -69 21 -40 23 -52 18 -128 -3 -46 -7 -86 -10 -88 -3 -3 -18 10 -35 29
-115 131 -417 143 -498 19 -56 -84 4 -171 155 -223 58 -20 86 -23 207 -23 120
0 142 -2 157 -17 21 -21 38 -23 61 -5 22 16 61 287 55 377 -8 108 -62 185
-154 220 -70 26 -186 26 -267 0z m125 -356 c49 -16 128 -83 128 -108 0 -21
-111 -30 -201 -17 -91 14 -183 57 -187 88 -8 56 142 78 260 37z"/>
<path d="M2962 903 c-35 -31 -102 -124 -102 -142 0 -25 20 -41 50 -41 19 1 38
17 78 66 55 69 62 93 36 118 -20 21 -37 20 -62 -1z"/>
<path d="M1615 881 c-34 -7 -42 -26 -74 -166 -11 -49 -45 -196 -76 -326 -30
-130 -55 -246 -55 -258 0 -27 44 -50 68 -34 11 7 29 62 54 168 20 86 38 158
40 160 2 1 49 14 104 28 160 40 423 174 468 239 37 53 11 110 -65 142 -93 39
-371 67 -464 47z m333 -109 c46 -11 87 -23 93 -29 28 -28 -274 -181 -408 -206
-25 -5 -33 -3 -33 7 0 14 46 217 56 245 6 19 176 9 292 -17z"/>
<path d="M4105 742 c-74 -26 -136 -65 -184 -117 -48 -53 -52 -84 -9 -99 24 -8
33 -4 88 47 121 109 260 117 326 18 18 -28 64 -140 64 -157 0 -1 -25 6 -55 17
-124 43 -284 5 -390 -93 -50 -45 -70 -93 -61 -143 7 -36 53 -82 89 -89 61 -13
113 -13 179 -1 90 16 145 37 225 87 51 32 66 37 82 29 27 -15 71 2 71 28 0 22
-58 219 -90 303 -29 79 -88 142 -156 167 -66 25 -113 26 -179 3z m234 -397
l35 -18 -24 -19 c-36 -29 -107 -63 -169 -82 -55 -16 -155 -21 -185 -10 -27 10
-18 50 17 80 91 77 232 98 326 49z"/>
<path d="M2301 733 c-10 -20 -111 -511 -111 -543 0 -26 44 -48 67 -34 9 6 28
48 43 95 37 119 75 187 132 241 61 59 125 81 233 82 77 1 80 2 89 28 14 39 -5
55 -74 63 -97 11 -204 -19 -287 -82 -37 -27 -37 -28 -21 68 12 66 11 72 -7 85
-26 19 -52 18 -64 -3z"/>
<path d="M2901 561 c-17 -11 -54 -486 -39 -514 10 -20 51 -23 70 -4 19 20 54
493 37 513 -13 16 -47 18 -68 5z"/>
</g>
</svg>
