<svg id="SvgjsSvg1011" width="288" height="288" xmlns="http://www.w3.org/2000/svg" version="1.1" xmlns:xlink="http://www.w3.org/1999/xlink" xmlns:svgjs="http://svgjs.com/svgjs"><defs id="SvgjsDefs1012"></defs><g id="SvgjsG1013"><svg xmlns="http://www.w3.org/2000/svg" width="288" height="288" viewBox="0 0 234 30"><path fill="#ffffff" fill-rule="evenodd" d="M135.195392,0 L140.690297,28.8501742 L137.579973,28.8501742 L134.158618,10.3484321 L134.05494,10.3484321 L125.346035,30 L116.637129,10.3484321 L116.533451,10.3484321 L113.112096,28.8501742 L110.001772,28.8501742 L115.496677,0 L125.346035,22.8919861 L135.195392,0 Z M193.047408,1.14982578 C196.054054,1.14982578 198.64599,2.71777003 200.097475,5.43554007 L197.609216,6.8989547 C196.572441,5.0174216 195.224634,3.97212544 192.943731,3.97212544 C190.559149,3.97212544 188.4856,5.74912892 188.4856,8.25783972 C188.4856,10.5574913 190.870182,11.7073171 192.736376,12.543554 L194.498892,13.3797909 C198.023926,14.9477352 201.030572,16.7247387 201.030572,21.010453 C201.030572,25.8188153 197.194506,29.4773519 192.529021,29.4773519 C188.174568,29.4773519 184.960567,26.6550523 184.131148,22.369338 L187.034116,21.533101 C187.448826,24.3554007 189.522375,26.5505226 192.425343,26.5505226 C195.328312,26.5505226 198.023926,24.3554007 198.023926,21.2195122 C198.023926,18.2628173 195.811914,17.0716917 193.473502,15.9814557 L193.047408,15.7839721 L193.047408,15.7839721 L191.388569,15.0522648 C188.278245,13.5888502 185.478954,12.0209059 185.478954,8.04878049 C185.478954,3.7630662 189.003988,1.14982578 193.047408,1.14982578 Z M226.016837,1.14982578 C229.023482,1.14982578 231.615419,2.71777003 233.066903,5.43554007 L230.578644,6.8989547 C229.54187,5.0174216 228.194063,3.97212544 225.913159,3.97212544 C223.528578,3.97212544 221.455029,5.74912892 221.455029,8.25783972 C221.455029,10.5574913 223.83961,11.7073171 225.705804,12.543554 L227.468321,13.3797909 C230.993354,14.9477352 234,16.7247387 234,21.010453 C234,25.8188153 230.163934,29.4773519 225.498449,29.4773519 C221.143996,29.4773519 217.929996,26.6550523 217.100576,22.369338 L220.003545,21.533101 C220.418254,24.3554007 222.491803,26.5505226 225.394772,26.5505226 C228.29774,26.5505226 230.993354,24.3554007 230.993354,21.2195122 C230.993354,18.0836237 228.505095,16.9337979 226.016837,15.7839721 L224.357997,15.0522648 C221.247674,13.5888502 218.448383,12.0209059 218.448383,8.04878049 C218.448383,3.7630662 221.973416,1.14982578 226.016837,1.14982578 Z M80.8684094,1.04529617 C88.5405405,1.04529617 94.9685423,7.42160279 94.9685423,15.261324 C94.9685423,23.1010453 88.5405405,29.2682927 80.8684094,29.2682927 C73.1962782,29.2682927 66.7682765,22.9965157 66.7682765,15.1567944 C66.7682765,7.42160279 73.1962782,1.04529617 80.8684094,1.04529617 Z M10.3677448,1.56794425 C12.7523261,1.56794425 15.1369074,1.67247387 17.1067789,3.03135889 C19.0766504,4.3902439 20.1134249,6.79442509 20.1134249,9.30313589 C20.1134249,11.4982578 19.1803279,13.7979094 17.5214887,15.1567944 C15.6552946,16.6202091 13.3743908,16.9337979 11.0934869,16.9337979 L11.0934869,16.9337979 L8.91626052,16.9337979 L8.91626052,28.8501742 L5.90961453,28.8501742 L5.90961453,4.3902439 L3.00664599,4.3902439 L3.00664599,28.8501742 L0,28.8501742 L0,1.56794425 Z M40.4342047,1.56794425 C45.6180771,1.56794425 50.3872397,2.92682927 50.3872397,9.09407666 C50.3872397,13.2752613 47.7953035,16.3066202 43.6482056,16.6202091 L52.2534338,28.8501742 L48.5210456,28.8501742 L40.3305272,16.8292683 L39.6047851,16.8292683 L39.6047851,28.8501742 L36.5981391,28.8501742 L36.5981391,1.56794425 L40.4342047,1.56794425 Z M166.920691,1.56794425 L166.920691,28.8501742 L163.914045,28.8501742 L163.914045,4.3902439 L160.907399,4.3902439 L160.907399,28.8501742 L157.900753,28.8501742 L157.900753,1.56794425 L166.920691,1.56794425 Z M80.8684094,3.86759582 C74.6477625,3.86759582 69.7749225,8.98954704 69.7749225,15.1567944 C69.7749225,21.3240418 74.75144,26.445993 80.8684094,26.445993 C86.9853788,26.445993 91.9618963,21.3240418 91.9618963,15.1567944 C91.9618963,8.98954704 87.0890563,3.86759582 80.8684094,3.86759582 Z M40.7409973,4.39073381 L39.6047851,4.3902439 L39.6047851,14.2160279 L40.5378821,14.2160279 C43.9592379,14.2160279 47.3805937,13.5888502 47.3805937,9.30313589 C47.3805937,4.89480032 44.1892914,4.40783302 40.7409973,4.39073381 Z M10.256219,4.39060479 L8.91626052,4.3902439 L8.91626052,14.1114983 L10.9898095,14.1114983 C14.3074878,14.1114983 17.1067789,13.0662021 17.1067789,9.19860627 C17.1067789,4.70383275 13.5817457,4.3902439 10.0567125,4.3902439 Z" class="color23190F svgShape"></path></svg></g></svg>